<svg xmlns="http://www.w3.org/2000/svg" height="24" viewBox="0 -960 960 960" width="24" fill="white"><path d="M284-90q-31.762 0-54.381-22.619T207-167q0-31.762 22.619-54.381T284-244q31.763 0 54.381 22.619Q361-198.762 361-167t-22.619 54.381Q315.763-90 284-90Zm391 0q-31.763 0-54.381-22.619Q598-135.238 598-167t22.619-54.381Q643.237-244 675-244t54.381 22.619Q752-198.762 752-167t-22.619 54.381Q706.763-90 675-90ZM248-719l96 200h275l110-200H248Zm-35.877-75H788.5q23 0 34.5 19.839 11.5 19.838.5 40.161l-138 249q-10 19.5-28.25 30.25T618-444H326l-45 82h471v75H284.189q-43.857 0-66.273-37.75Q195.5-362.5 216-400l54-96.781L128.118-797H50v-75h125l37.123 78ZM344-519h275-275Z"/></svg>